Coordinates
version=1
nRows=12
nColumns=24
inDegrees=yes

Units are S.I. units (second, meters, Newtons, ...)
Angles are in degrees.

endheader
time	pelvis_tilt	pelvis_list	pelvis_rotation	pelvis_tx	pelvis_ty	pelvis_tz	hip_flexion_r	hip_adduction_r	hip_rotation_r	knee_angle_r	ankle_angle_r	subtalar_angle_r	mtp_angle_r	hip_flexion_l	hip_adduction_l	hip_rotation_l	knee_angle_l	ankle_angle_l	subtalar_angle_l	mtp_angle_l	lumbar_extension	lumbar_bending	lumbar_rotation
      3.37500000	     -7.03962597	     12.47559604	     -3.53700921	     -2.27459257	     -0.02495402	     -0.29722039	     12.81819747	    -18.56024529	     -4.56239406	    -61.32059372	    -29.64071128	    -11.49253773	     17.83732897	     20.61979073	     15.98107466	     -6.86213067	    -15.74891554	      1.10297125	     -9.13695670	      9.58337015	      2.83044589	    -14.22195668	      4.16160524
      3.38000000	     -6.94458511	     12.26012076	     -3.57349019	     -2.26788350	     -0.02347557	     -0.29779438	     13.63704664	    -18.26835982	     -4.36278395	    -61.96502235	    -28.19914948	    -11.63533376	     18.37015167	     19.75291630	     15.88679263	     -6.68298936	    -15.24859423	      1.37053602	     -9.02346894	      9.60188316	      2.71395372	    -13.93051785	      3.96051773
      3.38500000	     -6.83353856	     12.02537713	     -3.64790004	     -2.26118720	     -0.02197662	     -0.29828157	     14.44256710	    -17.92482681	     -4.12586702	    -62.53034525	    -26.78658208	    -11.70738336	     18.95881110	     18.88196727	     15.75272209	     -6.53458573	    -14.76539643	      1.62265812	     -8.89179210	      9.64725896	      2.59164593	    -13.62062248	      3.80692122
      3.39000000	     -6.70947130	     11.79479661	     -3.73302262	     -2.25457363	     -0.02049735	     -0.29871932	     15.24228096	    -17.56095386	     -3.86229131	    -63.03687221	    -25.44068474	    -11.73465180	     19.61027576	     18.02285925	     15.61132105	     -6.40149290	    -14.31682910	      1.85911614	     -8.72625046	      9.69919523	      2.44642636	    -13.32134186	      3.66284284
      3.39500000	     -6.59574531	     11.52205572	     -3.82318113	     -2.24791435	     -0.01903693	     -0.29915411	     16.03093571	    -17.13065035	     -3.60953123	    -63.45848212	    -24.21077418	    -11.77802767	     20.20293151	     17.17606370	     15.42303451	     -6.25895151	    -13.88436969	      2.11900722	     -8.57360084	      9.72937591	      2.32510301	    -12.97174311	      3.54524446
      3.40000000	     -6.48518378	     11.23296512	     -3.92096668	     -2.24126784	     -0.01761353	     -0.29955061	     16.81602196	    -16.66369295	     -3.36338006	    -63.81887012	    -23.07478169	    -11.83499739	     20.68212813	     16.34522342	     15.20977665	     -6.11386731	    -13.47709532	      2.38138518	     -8.41987147	      9.72221252	      2.21031098	    -12.60958067	      3.43976500
      3.40500000	     -6.40647123	     10.91835003	     -3.99942700	     -2.23464728	     -0.01623380	     -0.29995294	     17.61631015	    -16.15058104	     -3.14981754	    -64.10932596	    -22.07184060	    -11.99218301	     20.98536676	     15.55104472	     14.96981496	     -5.93198361	    -13.07638426	      2.60961303	     -8.30478987	      9.70504730	      2.12448377	    -12.21929527	      3.35572928
      3.41000000	     -6.26375303	     10.67386937	     -4.10513156	     -2.22803797	     -0.01490998	     -0.30032255	     18.36203256	    -15.71087512	     -2.88785403	    -64.37467865	    -21.00666955	    -11.94543005	     21.27733366	     14.70131422	     14.79531451	     -5.86546320	    -12.67829227	      2.90184322	     -8.06493743	      9.62178390	      1.98018344	    -11.90852541	      3.24683109
      3.41500000	     -6.18587325	     10.37197241	     -4.18089025	     -2.22146187	     -0.01363317	     -0.30071443	     19.14379185	    -15.19277383	     -2.68990137	    -64.54961071	    -20.10501009	    -12.07243872	     21.45088135	     13.91709206	     14.56219736	     -5.72466107	    -12.27972776	      3.12562456	     -7.92455805	      9.56439716	      1.89385484	    -11.53350831	      3.17168874
      3.42000000	     -6.02906785	     10.13473094	     -4.28742367	     -2.21488817	     -0.01237195	     -0.30104075	     19.84836134	    -14.73930131	     -2.44996223	    -64.69058373	    -19.10908219	    -12.01144030	     21.52001495	     13.04384951	     14.38802530	     -5.69722190	    -11.85534425	      3.41106432	     -7.61803412	      9.43817527	      1.73484887	    -11.24097392	      3.07349174
      3.42500000	     -5.98765354	      9.85373654	     -4.34874565	     -2.20838792	     -0.01122983	     -0.30143998	     20.65364811	    -14.22721206	     -2.27550464	    -64.74550039	    -18.32135070	    -12.16152012	     21.62624557	     12.28801376	     14.17190476	     -5.53435933	    -11.41670835	      3.60327598	     -7.47259088	      9.41305093	      1.68048075	    -10.89200602	      2.97271099
      3.43000000	     -5.75620960	      9.59325726	     -4.48236353	     -2.20186432	     -0.00993928	     -0.30168327	     21.23535953	    -13.73009826	     -2.08139421	    -64.74141306	    -17.23531134	    -12.05865106	     21.14011916	     11.32098086	     13.96404707	     -5.67543480	    -10.95142781	      3.92065467	     -7.01828807	      9.22175623	      1.43882760	    -10.58701867	      2.94073735
